<svg width="43" height="43" viewBox="0 0 43 43" fill="none" xmlns="http://www.w3.org/2000/svg">
<path d="M21.5 0.9375C10.1447 0.9375 0.9375 10.1447 0.9375 21.5C0.9375 32.8553 10.1447 42.0625 21.5 42.0625C32.8553 42.0625 42.0625 32.8553 42.0625 21.5C42.0625 10.1447 32.8553 0.9375 21.5 0.9375ZM29.6011 27.8202L28.2884 29.6103C28.2598 29.6492 28.2239 29.6822 28.1825 29.7072C28.1412 29.7322 28.0953 29.7489 28.0476 29.7561C27.9998 29.7634 27.9511 29.7611 27.9042 29.7495C27.8573 29.7378 27.8131 29.717 27.7743 29.6883L20.1827 24.1529C20.1354 24.119 20.097 24.0741 20.0706 24.0222C20.0443 23.9703 20.0308 23.9128 20.0312 23.8546V11.2188C20.0312 11.0168 20.1965 10.8516 20.3984 10.8516H22.6062C22.8081 10.8516 22.9733 11.0168 22.9733 11.2188V22.5786L29.5185 27.3107C29.6837 27.4255 29.7204 27.655 29.6011 27.8202Z" fill="#D8B452"/>
</svg>
