<svg width="36" height="36" viewBox="0 0 36 36" fill="none" xmlns="http://www.w3.org/2000/svg">
<g opacity="0.9" clip-path="url(#clip0_208_204)">
<path d="M36 18.1102C36 8.10674 27.9405 -0.0022583 18 -0.0022583C8.05498 -8.30067e-06 -0.0045166 8.10674 -0.0045166 18.1125C-0.0045166 27.1507 6.57898 34.6432 15.183 36.0022V23.346H10.6155V18.1125H15.1875V14.1187C15.1875 9.58049 17.8762 7.07399 21.987 7.07399C23.958 7.07399 26.0167 7.42724 26.0167 7.42724V11.8822H23.7465C21.5122 11.8822 20.8147 13.2795 20.8147 14.7127V18.1102H25.8052L25.0087 23.3437H20.8125V36C29.4165 34.641 36 27.1485 36 18.1102Z" fill="#D8B452"/>
</g>
<defs>
<clipPath id="clip0_208_204">
<rect width="36" height="36" fill="white"/>
</clipPath>
</defs>
</svg>
