<svg width="36" height="36" viewBox="0 0 36 36" fill="none" xmlns="http://www.w3.org/2000/svg">
<g opacity="0.9" clip-path="url(#clip0_208_206)">
<path d="M17.9952 11.9974C14.69 11.9974 11.9927 14.6948 11.9927 18C11.9927 21.3052 14.69 24.0026 17.9952 24.0026C21.3003 24.0026 23.9976 21.3052 23.9976 18C23.9976 14.6948 21.3003 11.9974 17.9952 11.9974ZM35.998 18C35.998 15.5143 36.0205 13.0512 35.8809 10.57C35.7413 7.68803 35.0839 5.1303 32.9765 3.02288C30.8646 0.910954 28.3114 0.258013 25.4295 0.118418C22.9439 -0.0211759 20.4808 0.0013394 17.9997 0.0013394C15.514 0.0013394 13.0509 -0.0211759 10.5698 0.118418C7.68789 0.258013 5.13021 0.915457 3.02282 3.02288C0.910937 5.13481 0.258008 7.68803 0.118416 10.57C-0.0211755 13.0557 0.00133938 15.5188 0.00133938 18C0.00133938 20.4812 -0.0211755 22.9488 0.118416 25.43C0.258008 28.312 0.91544 30.8697 3.02282 32.9771C5.13471 35.089 7.68789 35.742 10.5698 35.8816C13.0554 36.0212 15.5185 35.9987 17.9997 35.9987C20.4853 35.9987 22.9484 36.0212 25.4295 35.8816C28.3114 35.742 30.8691 35.0845 32.9765 32.9771C35.0884 30.8652 35.7413 28.312 35.8809 25.43C36.025 22.9488 35.998 20.4857 35.998 18ZM17.9952 27.2357C12.8843 27.2357 8.75959 23.111 8.75959 18C8.75959 12.889 12.8843 8.76426 17.9952 8.76426C23.106 8.76426 27.2307 12.889 27.2307 18C27.2307 23.111 23.106 27.2357 17.9952 27.2357ZM27.609 10.543C26.4157 10.543 25.4521 9.57931 25.4521 8.386C25.4521 7.1927 26.4157 6.22905 27.609 6.22905C28.8023 6.22905 29.7659 7.1927 29.7659 8.386C29.7663 8.66936 29.7107 8.95 29.6024 9.21186C29.4942 9.47371 29.3353 9.71163 29.1349 9.912C28.9346 10.1124 28.6967 10.2712 28.4348 10.3795C28.173 10.4878 27.8923 10.5433 27.609 10.543Z" fill="#D8B452"/>
</g>
<defs>
<clipPath id="clip0_208_206">
<rect width="36" height="36" fill="white"/>
</clipPath>
</defs>
</svg>
