<svg width="24" height="24" viewBox="0 0 24 24" fill="none" xmlns="http://www.w3.org/2000/svg">
<g clip-path="url(#clip0_208_247)">
<path d="M7.72985 1.15308C7.36891 0.281208 6.41735 -0.182854 5.50797 0.0655833L1.38297 1.19058C0.567347 1.41558 0.000161171 2.15621 0.000161171 2.99996C0.000161171 14.5968 9.40329 24 21.0002 24C21.8439 24 22.5845 23.4328 22.8095 22.6171L23.9345 18.4921C24.183 17.5828 23.7189 16.6312 22.847 16.2703L18.347 14.3953C17.583 14.0765 16.697 14.2968 16.1767 14.939L14.283 17.25C10.983 15.689 8.3111 13.0171 6.75016 9.71715L9.0611 7.82808C9.70329 7.30308 9.9236 6.42183 9.60485 5.65777L7.72985 1.15777V1.15308Z" fill="#331E15"/>
</g>
<defs>
<clipPath id="clip0_208_247">
<rect width="24" height="24" fill="white" transform="matrix(-1 0 0 1 24 0)"/>
</clipPath>
</defs>
</svg>
