<svg width="34" height="34" viewBox="0 0 34 34" fill="none" xmlns="http://www.w3.org/2000/svg">
<path d="M18.5738 33.15C21.9805 28.8867 29.75 18.5539 29.75 12.75C29.75 5.71094 24.0391 0 17 0C9.96094 0 4.25 5.71094 4.25 12.75C4.25 18.5539 12.0195 28.8867 15.4262 33.15C16.243 34.166 17.757 34.166 18.5738 33.15ZM17 8.5C18.1272 8.5 19.2082 8.94777 20.0052 9.7448C20.8022 10.5418 21.25 11.6228 21.25 12.75C21.25 13.8772 20.8022 14.9582 20.0052 15.7552C19.2082 16.5522 18.1272 17 17 17C15.8728 17 14.7918 16.5522 13.9948 15.7552C13.1978 14.9582 12.75 13.8772 12.75 12.75C12.75 11.6228 13.1978 10.5418 13.9948 9.7448C14.7918 8.94777 15.8728 8.5 17 8.5Z" fill="#D8B452"/>
</svg>
