<svg width="182" height="217" viewBox="0 0 182 217" fill="none" xmlns="http://www.w3.org/2000/svg">
<g clip-path="url(#clip0_227_263)">
<path d="M19.1337 51.6857C14.8006 52.2711 11.9005 48.3238 11.6787 43.9576L40.9347 42.3025L25.1534 17.6123C28.8234 15.2366 33.7214 15.2777 35.7828 19.1338L47.4389 41.9331L59.9419 41.2278C59.9461 38.7141 60.8823 36.2913 62.5695 34.428C64.2566 32.5647 66.5748 31.3932 69.0757 31.1402C71.5766 30.8871 74.0825 31.5705 76.1087 33.0582C78.1349 34.5458 79.5375 36.7319 80.0451 39.1938C80.5527 41.6557 80.1293 44.2184 78.8569 46.3862C77.5844 48.5539 75.5532 50.1728 73.1562 50.9297C70.7592 51.6866 68.1667 51.5277 65.8801 50.4838C63.5934 49.4398 61.7752 47.585 60.777 45.278L49.9914 46.9346L54.9573 56.6476C57.4121 56.1067 59.9802 56.4953 62.165 57.7384C64.3498 58.9814 65.9961 60.9905 66.7853 63.377C67.5746 65.7636 67.4508 68.358 66.4378 70.6586C65.4249 72.9591 63.5948 74.8023 61.3016 75.8316C59.0083 76.8609 56.4148 77.0033 54.0227 76.2311C51.6306 75.4589 49.6098 73.827 48.3512 71.6512C47.0926 69.4753 46.6857 66.91 47.209 64.4514C47.7323 61.9928 49.1488 59.8156 51.1845 58.341L44.4421 47.7924L19.1337 51.6857ZM59.9272 61.1425C58.4883 60.4066 56.816 60.2724 55.2782 60.7694C53.7404 61.2665 52.463 62.3541 51.727 63.793C50.9911 65.2318 50.8569 66.9041 51.3539 68.442C51.851 69.9798 52.9386 71.2572 54.3775 71.9931C55.8164 72.7291 57.4887 72.8633 59.0265 72.3662C60.5643 71.8691 61.8417 70.7815 62.5776 69.3427C63.3136 67.9038 63.4478 66.2315 62.9507 64.6937C62.4537 63.1558 61.3661 61.8784 59.9272 61.1425ZM72.8765 35.8244C71.4376 35.0885 69.7653 34.9543 68.2275 35.4513C66.6897 35.9484 65.4123 37.036 64.6763 38.4748C63.9404 39.9137 63.8062 41.586 64.3033 43.1239C64.8003 44.6617 65.8879 45.9391 67.3268 46.675C68.7657 47.4109 70.438 47.5452 71.9758 47.0481C73.5136 46.551 74.791 45.4634 75.527 44.0246C76.2629 42.5857 76.3971 40.9134 75.9 39.3755C75.403 37.8377 74.3154 36.5603 72.8765 35.8244Z" fill="#331E15"/>
</g>
<g clip-path="url(#clip1_227_263)">
<path d="M120.622 64.9347L124.742 74.1837L137.074 68.6909L132.954 59.4418C132.195 57.7366 130.203 56.9725 128.498 57.7321L122.332 60.4785C120.627 61.238 119.863 63.2294 120.622 64.9347ZM126.115 77.2667C121.009 79.5411 118.711 85.5291 120.986 90.6354L129.912 110.675C131.049 113.228 134.043 114.377 136.596 113.24L158.177 103.627C160.73 102.49 161.879 99.4959 160.742 96.9428L151.816 76.9033C149.541 71.797 143.553 69.4995 138.447 71.7739L126.115 77.2667ZM136.401 83.7693C138.445 82.8588 140.767 82.7976 142.856 83.5993C144.946 84.4009 146.631 85.9996 147.541 88.0438C148.452 90.0879 148.513 92.4101 147.711 94.4993C146.91 96.5886 145.311 98.2738 143.267 99.1843C141.223 100.095 138.9 100.156 136.811 99.3544C134.722 98.5527 133.037 96.954 132.126 94.9098C131.216 92.8657 131.155 90.5436 131.956 88.4543C132.758 86.365 134.357 84.6798 136.401 83.7693ZM149.056 54.1173C148.996 53.9824 148.831 53.8712 148.689 53.8649L145.286 53.949L142.813 51.6101C142.703 51.5202 142.506 51.4925 142.372 51.5526C142.237 51.6127 142.125 51.7777 142.119 51.9191L142.203 55.3222L139.864 57.7957C139.774 57.905 139.747 58.102 139.807 58.2369C139.867 58.3718 140.032 58.483 140.173 58.4894L143.576 58.4052L146.05 60.7442C146.159 60.834 146.356 60.8617 146.491 60.8016C146.626 60.7415 146.737 60.5765 146.744 60.4352L146.659 57.032L148.998 54.5585C149.088 54.4492 149.116 54.2522 149.056 54.1173ZM158.382 55.2513C158.491 55.3412 158.688 55.3689 158.823 55.3088C158.958 55.2487 159.069 55.0837 159.076 54.9423L158.991 51.5392L161.33 49.0657C161.42 48.9564 161.448 48.7593 161.388 48.6245C161.328 48.4896 161.163 48.3783 161.021 48.372L157.618 48.4562L155.145 46.1172C155.036 46.0274 154.838 45.9997 154.704 46.0598C154.569 46.1198 154.457 46.2849 154.451 46.4262L154.535 49.8294L152.196 52.3028C152.106 52.4121 152.079 52.6092 152.139 52.7441C152.199 52.879 152.364 52.9902 152.505 52.9965L155.908 52.9124L158.382 55.2513ZM163.384 64.6153C163.275 64.5254 163.078 64.4977 162.943 64.5578C162.808 64.6179 162.697 64.7829 162.69 64.9242L162.775 68.3274L160.436 70.8009C160.346 70.9102 160.318 71.1072 160.378 71.2421C160.438 71.377 160.603 71.4882 160.745 71.4945L164.148 71.4104L166.621 73.7493C166.731 73.8392 166.928 73.8669 167.062 73.8068C167.197 73.7467 167.309 73.5817 167.315 73.4404L167.231 70.0372L169.57 67.5637C169.66 67.4544 169.687 67.2574 169.627 67.1225C169.567 66.9876 169.402 66.8764 169.261 66.8701L165.858 66.9542L163.384 64.6153ZM159.342 60.6199C159.281 60.485 159.116 60.3738 158.975 60.3675L155.572 60.4516L153.098 58.1127C152.989 58.0228 152.792 57.9951 152.657 58.0552C152.522 58.1153 152.411 58.2803 152.405 58.4216L152.489 61.8248L150.15 64.2983C150.06 64.4076 150.032 64.6046 150.092 64.7395C150.153 64.8744 150.318 64.9856 150.459 64.992L153.862 64.9078L156.336 67.2467C156.445 67.3366 156.642 67.3643 156.777 67.3042C156.912 67.2441 157.023 67.0791 157.029 66.9378L156.945 63.5346L159.284 61.0611C159.374 60.9518 159.402 60.7548 159.342 60.6199Z" fill="#A98933"/>
</g>
<rect x="99.7964" y="137.665" width="35.8016" height="35.8016" rx="17.9008" transform="rotate(90.7435 99.7964 137.665)" fill="#D2C598"/>
<rect x="121.595" y="150.968" width="35.8016" height="35.8016" rx="17.9008" transform="rotate(90.7435 121.595 150.968)" fill="#7E6B53"/>
<rect x="99.4796" y="162.073" width="35.8016" height="35.8016" rx="17.9008" transform="rotate(90.7435 99.4796 162.073)" fill="#331E15"/>
<defs>
<clipPath id="clip0_227_263">
<rect width="65" height="65" fill="white" transform="translate(0 57.87) rotate(-62.9119)"/>
</clipPath>
<clipPath id="clip1_227_263">
<rect width="54" height="54" fill="white" transform="translate(110 65.9713) rotate(-24.0088)"/>
</clipPath>
</defs>
</svg>
